<svg width="26" height="26" viewBox="0 0 26 26" fill="none" xmlns="http://www.w3.org/2000/svg">
<path fill-rule="evenodd" clip-rule="evenodd" d="M15.755 6.8174C14.4218 6.22335 12.9323 6.07618 11.5086 6.39785C10.0848 6.71951 8.80329 7.49278 7.85497 8.60233C6.90664 9.71187 6.34238 11.0982 6.24634 12.5547C6.1503 14.0111 6.52764 15.4596 7.32206 16.684C8.11649 17.9085 9.28544 18.8433 10.6545 19.3492C12.0237 19.855 13.5197 19.9047 14.9194 19.4908C16.3191 19.077 17.5475 18.2218 18.4214 17.0527C19.2953 15.8837 19.768 14.4635 19.7688 13.0039V12.3124C19.7688 11.8971 20.1055 11.5604 20.5209 11.5604C20.9362 11.5604 21.2729 11.8971 21.2729 12.3124V13.0048C21.2719 14.7887 20.6943 16.5245 19.6261 17.9534C18.558 19.3822 17.0566 20.4274 15.3458 20.9333C13.6351 21.4391 11.8067 21.3783 10.1333 20.7601C8.45992 20.1419 7.0312 18.9993 6.06024 17.5027C5.08927 16.0061 4.62809 14.2358 4.74547 12.4557C4.86285 10.6756 5.5525 8.98117 6.71157 7.62506C7.87063 6.26895 9.43702 5.32385 11.1771 4.9307C12.9172 4.53755 14.7377 4.71742 16.3672 5.44348C16.7466 5.61253 16.9171 6.05714 16.7481 6.43653C16.579 6.81593 16.1344 6.98645 15.755 6.8174Z" fill="url(#paint0_linear_8_2056)"/>
<path fill-rule="evenodd" clip-rule="evenodd" d="M21.0521 6.45554C21.346 6.7491 21.3462 7.22528 21.0527 7.51913L13.532 15.0473C13.391 15.1885 13.1997 15.2678 13.0001 15.2678C12.8006 15.2679 12.6093 15.1887 12.4682 15.0476L10.212 12.7914C9.91827 12.4977 9.91827 12.0215 10.212 11.7278C10.5057 11.4341 10.9819 11.4341 11.2756 11.7278L12.9997 13.4519L19.9886 6.45608C20.2821 6.16223 20.7583 6.16199 21.0521 6.45554Z" fill="#E1E1E6"/>
<defs>
<linearGradient id="paint0_linear_8_2056" x1="6.57089" y1="-0.591079" x2="24.7571" y2="3.62738" gradientUnits="userSpaceOnUse">
<stop stop-color="#B35600"/>
<stop offset="1" stop-color="#713906"/>
</linearGradient>
</defs>
</svg>
