<svg width="16" height="16" viewBox="0 0 16 16" fill="none" xmlns="http://www.w3.org/2000/svg">
<path fill-rule="evenodd" clip-rule="evenodd" d="M8.10546 11.0937L9.99985 9.18039C10.1913 8.98039 10.1913 8.66706 9.99325 8.47372C9.80183 8.28039 9.4916 8.28039 9.30018 8.47372L8.25067 9.54039V6.32706C8.25067 6.04706 8.03285 5.82706 7.76222 5.82706C7.4916 5.82706 7.26717 6.04706 7.26717 6.32706V9.54039L6.21767 8.47372C6.02625 8.28039 5.71602 8.28039 5.5246 8.47372C5.33318 8.66706 5.33318 8.98039 5.5246 9.18039L7.41239 11.0937C7.45859 11.1404 7.5114 11.1737 7.5708 11.2004C7.63021 11.2271 7.69622 11.2404 7.76222 11.2404C7.82823 11.2404 7.88764 11.2271 7.94704 11.2004C8.00645 11.1737 8.05925 11.1404 8.10546 11.0937ZM12.8885 6.01747C13.0437 6.01567 13.2126 6.01372 13.3661 6.01372C13.5377 6.01372 13.6698 6.14706 13.6698 6.31372V11.6737C13.6698 13.3271 12.3364 14.6671 10.6995 14.6671L5.45194 14.6671C3.72917 14.6671 2.33643 13.2604 2.33643 11.5271V4.34039C2.33643 2.68706 3.66316 1.33372 5.31332 1.33372L8.83808 1.33372C9.00309 1.33372 9.14171 1.47372 9.14171 1.64039V3.78706C9.14171 5.00706 10.1318 6.00706 11.3463 6.01372C11.6253 6.01372 11.8749 6.01584 12.0928 6.01769C12.2616 6.01912 12.4114 6.02039 12.541 6.02039C12.635 6.02039 12.7568 6.01899 12.8885 6.01747ZM13.0728 5.04446C12.5309 5.04646 11.8913 5.04446 11.4313 5.0398C10.7012 5.0398 10.0999 4.43246 10.0999 3.69513V1.9378C10.0999 1.65046 10.4451 1.5078 10.6418 1.71513C11.1503 2.24868 11.9289 3.06649 12.5868 3.75749C12.8529 4.03695 13.0992 4.29567 13.2999 4.50646C13.4926 4.70846 13.3514 5.0438 13.0728 5.04446Z" fill="white"/>
</svg>
